<svg width="20" height="15" viewBox="0 0 20 15" fill="none" xmlns="http://www.w3.org/2000/svg">
<path d="M2.8028 15.0001H16.5788C18.2167 15.0001 19.1683 14.0485 19.1683 12.2253V2.78339C19.1683 0.967265 18.2097 0.015625 16.364 0.015625H2.588C0.951639 0.015625 0 0.960259 0 2.78339V12.2253C0 14.0555 0.958645 15.0001 2.8028 15.0001ZM2.79921 13.416C2.00324 13.416 1.57023 13.0062 1.57023 12.1715V2.83722C1.57023 2.011 2.00324 1.59969 2.79921 1.59969H16.3676C17.1511 1.59969 17.5981 2.011 17.5981 2.84423V12.1785C17.5981 13.0062 17.1511 13.416 16.3676 13.416H2.79921ZM9.59739 9.8318C10.2293 9.8318 10.8334 9.56859 11.4469 8.96366L18.3216 2.20393L17.2993 1.17147L10.5759 7.81249C10.2192 8.16756 9.91214 8.3222 9.59739 8.3222C9.27564 8.3222 8.97008 8.16056 8.61894 7.81249L1.86756 1.14344L0.83817 2.17437L7.74643 8.96366C8.36143 9.56859 8.95848 9.8318 9.59739 9.8318ZM17.1922 13.7193L18.2162 12.6869L12.7574 7.28409L11.7319 8.30799L17.1922 13.7193ZM0.971631 12.6939L1.99708 13.7263L7.46289 8.30799L6.432 7.28409L0.971631 12.6939Z" fill="black"/>
</svg>
