<svg xmlns="http://www.w3.org/2000/svg" width="30.034" height="30.098" viewBox="0 0 30.034 30.098">
  <defs>
    <style>
      .cls-1 {
        fill: #1b1930;
      }
    </style>
  </defs>
  <g id="Layer_2" data-name="Layer 2" transform="translate(0.01)">
    <g id="Layer_1" data-name="Layer 1" transform="translate(-0.01 0)">
      <path id="Path_8" data-name="Path 8" class="cls-1" d="M15.007,2.282A12.766,12.766,0,1,1,2.275,15.044,12.753,12.753,0,0,1,15.007,2.282m0-2.282A15.049,15.049,0,1,0,30.024,15.041,15.033,15.033,0,0,0,15.007,0Z" transform="translate(0.01 0)"/>
      <path id="Path_9" data-name="Path 9" class="cls-1" d="M22.829,13.23c0,3.378-3.8,3.043-3.8,5.577v.715H16.55v-.814c0-3.591,3.477-3.294,3.477-5.265,0-.928-.668-1.468-1.761-1.468a3.445,3.445,0,0,0-2.657,1.385L13.87,11.99a5.8,5.8,0,0,1,4.654-2.161C21.363,9.829,22.829,11.48,22.829,13.23Zm-3.28,10.027a1.693,1.693,0,1,1-1.683-1.7,1.71,1.71,0,0,1,1.683,1.7Z" transform="translate(-3.332 -2.351)"/>
    </g>
  </g>
</svg>
