<?xml version="1.0" encoding="utf-8"?>
<!-- Generator: Adobe Illustrator 25.4.1, SVG Export Plug-In . SVG Version: 6.00 Build 0)  -->
<svg version="1.1" id="Layer_1" xmlns="http://www.w3.org/2000/svg" xmlns:xlink="http://www.w3.org/1999/xlink" x="0px" y="0px"
	 viewBox="0 0 39.6 39.6" style="enable-background:new 0 0 39.6 39.6;" xml:space="preserve">
<style type="text/css">
	.st0{fill:#1B1930;}
</style>
<g id="Layer_2_00000076602018014473014210000003516436683693704638_">
	<g id="Layer_3">
		<path className="st0" d="M36.6,15.1h-2.8c-0.2-0.6-0.5-1.3-0.8-1.9l2-2c1.2-1.2,1.2-3.1,0-4.2l-2.4-2.4c-0.6-0.6-1.3-0.9-2.1-0.9l0,0
			c-0.8,0-1.6,0.3-2.1,0.9l-2,2c-0.6-0.3-1.2-0.6-1.9-0.8V3c0-1.7-1.3-3-3-3h-3.3c-1.7,0-3,1.3-3,3v2.8c-0.6,0.2-1.3,0.5-1.9,0.8
			l-2-2c-1.2-1.1-3.1-1.1-4.2,0L4.6,7c-1.2,1.2-1.2,3.1,0,4.2c0,0,0,0,0,0l2,2c-0.3,0.6-0.6,1.2-0.8,1.9H3c-1.7,0-3,1.3-3,3v3.4
			c0,1.7,1.3,3,3,3h2.8c0.2,0.6,0.5,1.3,0.8,1.9l-2,2c-1.2,1.2-1.2,3.1,0,4.2c0,0,0,0,0,0L7,35c1.2,1.2,3.1,1.2,4.2,0c0,0,0,0,0,0
			l2-2c0.6,0.3,1.2,0.6,1.9,0.8v2.8c0,1.7,1.3,3,3,3h3.4c1.7,0,3-1.3,3-3v-2.8c0.6-0.2,1.3-0.5,1.9-0.8l2,2c0.6,0.6,1.3,0.9,2.1,0.9
			l0,0c0.8,0,1.5-0.3,2.1-0.9l2.4-2.4c1.2-1.2,1.2-3.1,0-4.2c0,0,0,0,0,0l-2-2c0.3-0.6,0.6-1.2,0.8-1.9h2.8c1.7,0,3-1.3,3-3v-3.3
			C39.6,16.5,38.3,15.1,36.6,15.1C36.6,15.1,36.6,15.1,36.6,15.1z M31.5,22.8c-0.3,1.1-0.7,2.1-1.3,3.1c-0.3,0.5-0.2,1.2,0.2,1.6
			l2.7,2.7c0.1,0.1,0.1,0.2,0.1,0.2c0,0.1,0,0.2-0.1,0.2l-2.4,2.4c-0.1,0.1-0.3,0.1-0.5,0l-2.7-2.7c-0.4-0.4-1.1-0.5-1.6-0.2
			c-1,0.6-2,1-3.1,1.3c-0.6,0.2-1,0.7-1,1.3v3.8c0,0.2-0.1,0.3-0.3,0.3h-3.4c-0.2,0-0.3-0.2-0.3-0.3l0,0v-3.8c0-0.6-0.4-1.1-1-1.3
			c-1.1-0.3-2.1-0.7-3.1-1.3C13.5,30.1,13.3,30,13,30c-0.4,0-0.7,0.1-1,0.4l-2.6,2.7c-0.1,0.1-0.3,0.1-0.5,0l-2.4-2.4
			c-0.1-0.1-0.1-0.2-0.1-0.2c0-0.1,0-0.2,0.1-0.2l2.7-2.7c0.4-0.4,0.5-1.1,0.2-1.6c-0.6-1-1-2-1.3-3.1c-0.2-0.6-0.7-1-1.3-1H3
			c-0.2,0-0.3-0.1-0.3-0.3v-3.4c0-0.2,0.2-0.3,0.3-0.3l0,0h3.8c0.6,0,1.1-0.4,1.3-1c0.3-1.1,0.7-2.1,1.3-3.1
			c0.3-0.5,0.2-1.2-0.2-1.7L6.5,9.4C6.4,9.2,6.4,9,6.5,8.9c0,0,0,0,0,0l2.4-2.4c0.1-0.1,0.3-0.1,0.5,0c0,0,0,0,0,0L12,9.2
			c0.4,0.4,1.1,0.5,1.6,0.2c1-0.6,2-1,3.1-1.3c0.6-0.2,1-0.7,1-1.3V3c0-0.2,0.2-0.3,0.3-0.3l0,0h3.4c0.2,0,0.3,0.2,0.3,0.3v3.8
			c0,0.6,0.4,1.1,1,1.3c1.1,0.3,2.1,0.7,3.1,1.3c0.5,0.3,1.2,0.2,1.6-0.2l2.7-2.7c0.1-0.1,0.1-0.1,0.2-0.1c0.1,0,0.2,0,0.2,0.1
			l2.4,2.4c0.1,0.1,0.1,0.3,0,0.5L30.4,12c-0.4,0.4-0.5,1.1-0.2,1.6c0.6,1,1,2,1.3,3.1c0.2,0.6,0.7,1,1.3,1h3.8
			c0.2,0,0.3,0.2,0.3,0.3l0,0v3.4c0,0.2-0.2,0.3-0.3,0.3h-3.8C32.2,21.8,31.7,22.2,31.5,22.8z"/>
		<path className="st0" d="M19.8,11.8c-4.4,0-8.1,3.6-8.1,8.1s3.6,8,8,8s8.1-3.6,8.1-8c0,0,0,0,0,0C27.9,15.4,24.3,11.8,19.8,11.8z
			 M25.2,19.8c0,3-2.4,5.4-5.4,5.4c-3,0-5.4-2.4-5.4-5.4s2.4-5.4,5.4-5.4c0,0,0,0,0,0C22.8,14.4,25.2,16.8,25.2,19.8z"/>
	</g>
</g>
</svg>
