<svg xmlns="http://www.w3.org/2000/svg" width="18.852" height="26.012" viewBox="0 0 18.852 26.012">
  <g id="icn_asm" transform="translate(0 0)">
    <g id="Layer_1" data-name="Layer 1" transform="translate(0 0)">
      <path id="Path_4" data-name="Path 4" d="M15.469,26.012H3.37A3.37,3.37,0,0,1,0,22.642V3.37A3.37,3.37,0,0,1,3.37,0H11.58a.933.933,0,0,1,.657.263l6.352,6.352a.933.933,0,0,1,.263.657v15.37a3.37,3.37,0,0,1-3.383,3.37ZM3.37,1.813A1.557,1.557,0,0,0,1.813,3.37V22.642A1.557,1.557,0,0,0,3.37,24.2h12.1a1.557,1.557,0,0,0,1.557-1.557V7.633l-5.82-5.82Z" transform="translate(0 0)" fill="#1c1c1c"/>
      <path id="Path_5" data-name="Path 5" d="M23.508,8.638H16.25V1.38h1.813V6.825h5.445Z" transform="translate(-5.576 -0.474)" fill="#1c1c1c"/>
      <rect id="Rectangle_18" data-name="Rectangle 18" width="11.173" height="1.813" transform="translate(3.875 11.436)" fill="#1c1c1c"/>
      <rect id="Rectangle_19" data-name="Rectangle 19" width="11.173" height="1.813" transform="translate(3.875 15.325)" fill="#1c1c1c"/>
      <rect id="Rectangle_20" data-name="Rectangle 20" width="11.173" height="1.813" transform="translate(3.875 19.207)" fill="#1c1c1c"/>
    </g>
  </g>
</svg>
