<?xml version="1.0" encoding="UTF-8"?><svg id="Layer_2" xmlns="http://www.w3.org/2000/svg" viewBox="0 0 21.54 19.16"><defs><style>.cls-1{fill:#8b8b8b;}</style></defs><g id="Layer_1-2"><g><path class="cls-1" d="m7.15,15.43c-.87,0-1.71-.31-2.34-.95-.67-.67-1-1.58-.95-2.56.05-.94.47-1.84,1.16-2.53L12.69,1.72c.39-.39,1.02-.39,1.41,0s.39,1.02,0,1.41l-7.67,7.67c-.35.35-.55.78-.58,1.23-.02.41.11.77.37,1.03.56.56,1.57.47,2.26-.22l6.37-6.37c.39-.39,1.02-.39,1.41,0s.39,1.02,0,1.41l-6.37,6.37c-.77.77-1.77,1.16-2.74,1.16Z"/><path class="cls-1" d="m11.95,16.29c-.26,0-.51-.1-.71-.29-.39-.39-.39-1.02,0-1.41l7.15-7.15c1.37-1.37,1.53-3.45.35-4.63-1.19-1.19-3.27-1.03-4.64.34-.39.39-1.02.39-1.41,0s-.39-1.02,0-1.41c2.15-2.15,5.51-2.31,7.47-.34,1.96,1.96,1.8,5.31-.35,7.46l-7.15,7.15c-.2.2-.45.29-.71.29Z"/><path class="cls-1" d="m6.36,19.16c-1.75,0-3.34-.64-4.52-1.83C.55,16.05-.1,14.28.01,12.37c.11-1.87.93-3.66,2.32-5.05L8.53,1.13c.39-.39,1.02-.39,1.41,0s.39,1.02,0,1.41l-6.2,6.2c-1.04,1.04-1.66,2.37-1.74,3.75-.08,1.33.36,2.55,1.24,3.43.87.87,2.09,1.31,3.42,1.23,1.38-.08,2.71-.7,3.75-1.74l5.2-5.2c.39-.39,1.02-.39,1.41,0s.39,1.02,0,1.41l-5.2,5.2c-1.39,1.39-3.18,2.21-5.05,2.32-.14,0-.28.01-.42.01Z"/></g></g></svg>