<svg width="18" height="18" viewBox="0 0 18 18" fill="none" xmlns="http://www.w3.org/2000/svg">
<path d="M13.3553 17.9999C14.9404 17.9999 16.0097 17.5463 16.9689 16.4892C17.0394 16.4186 17.1084 16.3406 17.1717 16.2684C17.7004 15.6714 17.9646 15.0495 17.9646 14.4725C17.9646 13.7979 17.5968 13.1864 16.7899 12.625L14.1037 10.7587C13.2552 10.1728 12.2827 10.1227 11.5226 10.8787L10.85 11.5528C10.6147 11.7898 10.3967 11.802 10.1364 11.6171C9.64707 11.2922 8.71971 10.4799 8.08401 9.84582C7.43496 9.20411 6.78698 8.46331 6.42579 7.91399C6.25314 7.64614 6.26217 7.43719 6.49749 7.20025L7.16425 6.52771C7.92929 5.76758 7.88067 4.78767 7.2932 3.94826L5.38954 1.22306C4.84431 0.443785 4.20843 0.075188 3.53228 0.0677834C2.9504 0.0603789 2.34468 0.315743 1.74619 0.841276C1.66817 0.910263 1.59593 0.971853 1.53181 1.02856C0.456908 2.01299 0 3.06766 0 4.69972C0 7.36189 1.54374 10.5026 4.54489 13.4875C7.5296 16.4544 10.6436 17.9999 13.3553 17.9999ZM13.3513 16.4923C11.0503 16.5309 8.17394 14.8814 5.68246 12.4135C3.17615 9.92927 1.47456 6.95519 1.51321 4.65421C1.52802 3.68206 1.87693 2.83235 2.56013 2.23945C2.62821 2.1804 2.68311 2.12875 2.7512 2.08034C3.00747 1.86182 3.28017 1.74516 3.53066 1.74516C3.79089 1.74516 4.0273 1.84936 4.20211 2.12026L5.90514 4.66504C6.11427 4.97422 6.12258 5.3244 5.81665 5.62545L5.08704 6.34856C4.40872 7.0155 4.46362 7.79024 4.9021 8.40336C5.3908 9.08892 6.30101 10.1214 7.0662 10.8727C7.86788 11.6753 8.98162 12.6683 9.64691 13.1482C10.2617 13.5883 11.0364 13.6432 11.7017 12.9633L12.4249 12.2353C12.7259 11.9277 13.0687 11.9393 13.3869 12.1393L15.8926 13.8034C16.1684 13.9857 16.2677 14.2146 16.2677 14.4806C16.2677 14.7312 16.1527 15.0038 15.9326 15.2618C15.8768 15.3298 15.8325 15.3847 15.7734 15.4528C15.1806 16.136 14.3308 16.4775 13.3513 16.4923Z" fill="#8B8B8B" fill-opacity="0.5"/>
</svg>
