<svg width="118" height="23" viewBox="0 0 118 23" fill="none" xmlns="http://www.w3.org/2000/svg">
<path d="M7.225 6.9C3.125 6.9 0.525 9.25 0.525 13.55C0.525 17.85 3.125 20.2 7.225 20.2C11.325 20.2 13.925 17.85 13.925 13.55C13.925 9.25 11.325 6.9 7.225 6.9ZM7.225 17.2C5.725 17.2 4.4 16 4.4 13.55C4.4 11.125 5.725 9.9 7.225 9.9C8.675 9.9 10.05 11.125 10.05 13.55C10.05 15.975 8.675 17.2 7.225 17.2ZM23.6281 6.9C21.5281 6.9 20.0031 7.675 19.3531 9.625H19.3281V7.075H15.4531V20H19.4281V13.05C19.4281 11.275 20.4031 9.975 21.9031 9.975C23.5281 9.975 24.3031 10.975 24.3031 12.75V20H28.3031V11.925C28.3031 8.525 26.5781 6.9 23.6281 6.9Z" fill="#1B1930"/>
<path d="M30.0225 11.2C30.0225 16.925 33.1975 20.2 38.4225 20.2C42.6225 20.2 45.6975 17.85 46.1475 14.15H42.0475C41.5725 15.925 40.2725 16.875 38.4225 16.875C35.7725 16.875 34.2225 14.825 34.2225 11.2C34.2225 7.625 35.8225 5.575 38.4225 5.575C40.2725 5.575 41.5725 6.625 41.9975 8.425H46.1225C45.6475 4.7 42.4975 2.3 38.4225 2.3C33.2225 2.3 30.0225 5.55 30.0225 11.2ZM48.1779 15.9C48.1779 18.9 49.9779 20.025 52.4529 20.025C53.1029 20.025 53.8529 19.975 54.6029 19.825V17.05C54.3279 17.075 54.1029 17.1 53.9029 17.1C52.7029 17.1 52.2029 16.725 52.2029 15.575V2.5H48.1779V15.9ZM61.7684 6.9C58.2684 6.9 56.0434 8.55 55.7434 11.1H59.3434C59.5434 10.225 60.4184 9.7 61.5934 9.7C62.9184 9.7 63.6684 10.425 63.6684 11.625V12.05L60.3684 12.275C56.9684 12.475 55.0934 13.825 55.0934 16.325C55.0934 18.675 57.0184 20.2 59.4434 20.2C61.1684 20.2 63.0934 19.4 63.7684 17.975H63.8434V20H67.6934V11.425C67.6934 8.75 65.4184 6.9 61.7684 6.9ZM63.6684 14.95C63.6684 16.3 62.3434 17.525 60.8934 17.525C59.8684 17.525 59.0684 16.975 59.0684 16.025C59.0684 15.125 59.7184 14.525 61.0184 14.45L63.6684 14.275V14.95ZM77.0768 12.4L75.0518 12.025C73.6518 11.725 73.3768 11.375 73.3768 10.85C73.3768 10.1 74.1768 9.65 75.1268 9.65C76.1768 9.65 76.9018 10.2 77.0268 11.1H80.6768C80.3768 8.125 77.9518 6.95 75.1268 6.95C72.1768 6.95 69.5018 8.275 69.5018 11.075C69.5018 13 70.9268 14.25 73.4018 14.775L75.4018 15.15C76.8268 15.45 77.0768 15.825 77.0768 16.3C77.0768 17.025 76.4018 17.475 75.3018 17.475C74.1518 17.475 73.3518 16.95 73.1268 16.1H69.3268C69.7518 19.1 72.4018 20.2 75.3018 20.2C79.0268 20.2 81.0768 18.5 81.0768 15.9C81.0768 14.025 79.7768 12.95 77.0768 12.4ZM90.1627 12.4L88.1377 12.025C86.7377 11.725 86.4627 11.375 86.4627 10.85C86.4627 10.1 87.2627 9.65 88.2127 9.65C89.2627 9.65 89.9877 10.2 90.1127 11.1H93.7627C93.4627 8.125 91.0377 6.95 88.2127 6.95C85.2627 6.95 82.5877 8.275 82.5877 11.075C82.5877 13 84.0127 14.25 86.4877 14.775L88.4877 15.15C89.9127 15.45 90.1627 15.825 90.1627 16.3C90.1627 17.025 89.4877 17.475 88.3877 17.475C87.2377 17.475 86.4377 16.95 86.2127 16.1H82.4127C82.8377 19.1 85.4877 20.2 88.3877 20.2C92.1127 20.2 94.1627 18.5 94.1627 15.9C94.1627 14.025 92.8627 12.95 90.1627 12.4ZM103.199 1.5H99.5986C97.5736 4.275 96.4486 7.85 96.4486 11.775C96.4486 15.725 97.5736 19.325 99.5986 22.05H103.199C101.399 19.5 100.249 15.525 100.249 11.775C100.249 8.05 101.399 4.1 103.199 1.5ZM103.667 1.5C105.467 4.1 106.642 8.05 106.642 11.775C106.642 15.525 105.467 19.5 103.667 22.05H107.292C109.292 19.325 110.417 15.725 110.417 11.775C110.417 7.85 109.292 4.275 107.292 1.5H103.667ZM114.911 20C116.386 20 117.286 18.975 117.286 17.8C117.286 16.575 116.386 15.55 114.911 15.55C113.386 15.55 112.511 16.575 112.511 17.8C112.511 18.975 113.386 20 114.911 20Z" fill="#41B094"/>
</svg>
