<?xml version="1.0" encoding="utf-8"?>
<!-- Generator: Adobe Illustrator 25.4.1, SVG Export Plug-In . SVG Version: 6.00 Build 0)  -->
<svg version="1.1" id="Layer_1" xmlns="http://www.w3.org/2000/svg" xmlns:xlink="http://www.w3.org/1999/xlink" x="0px" y="0px"
	 viewBox="0 0 40.2 40.2" style="enable-background:new 0 0 40.2 40.2;" xml:space="preserve">
<style type="text/css">
	.st0{fill:#1B1930;}
</style>
<g id="Layer_2_00000129912721714966124660000008275643754516509351_">
	<g id="Layer_3">
		<path className="st0" d="M28.3,30.8v3.1c0,3.5-2.8,6.3-6.3,6.3H6.3c-3.5,0-6.3-2.8-6.3-6.3V6.3C0,2.8,2.8,0,6.3,0H22
			c3.5,0,6.3,2.8,6.3,6.3v3.1c-0.1,0.9-0.8,1.5-1.7,1.4c-0.8-0.1-1.4-0.7-1.4-1.4V6.3c0-1.7-1.4-3.1-3.1-3.1H6.3
			c-1.7,0-3.1,1.4-3.1,3.1v27.6c0,1.7,1.4,3.1,3.1,3.1H22c1.7,0,3.1-1.4,3.1-3.1v-3.1c-0.1-0.9,0.6-1.6,1.4-1.7s1.6,0.6,1.7,1.4
			C28.3,30.6,28.3,30.7,28.3,30.8z M39,17.4l-3.5-3.5c-0.6-0.6-1.6-0.6-2.2,0c0,0,0,0,0,0c-0.6,0.6-0.6,1.6,0,2.2l2.5,2.5H17
			c-0.9,0-1.6,0.7-1.6,1.6c0,0.9,0.7,1.6,1.6,1.6c0,0,0,0,0,0h18.8l-2.5,2.5c-0.6,0.6-0.6,1.6,0,2.2c0.6,0.6,1.6,0.6,2.2,0l3.5-3.5
			C40.5,21.4,40.5,18.9,39,17.4z"/>
	</g>
</g>
</svg>
