<svg width="22" height="23" viewBox="0 0 22 23" fill="none" xmlns="http://www.w3.org/2000/svg">
<path fill-rule="evenodd" clip-rule="evenodd" d="M1.5 4C2.32843 4 3 4.67157 3 5.5V20.5C3 21.3284 2.32843 22 1.5 22C0.671573 22 0 21.3284 0 20.5V5.5C0 4.67157 0.671573 4 1.5 4Z" fill="black"/>
<path fill-rule="evenodd" clip-rule="evenodd" d="M9.5 -6.55671e-08C10.3284 -1.01779e-07 11 0.671573 11 1.5L11 20.5C11 21.3284 10.3284 22 9.5 22C8.67157 22 8 21.3284 8 20.5L8 1.5C8 0.671573 8.67157 -2.93554e-08 9.5 -6.55671e-08Z" fill="black"/>
<path fill-rule="evenodd" clip-rule="evenodd" d="M15.2501 2.25657C16.0573 2.07021 16.8628 2.5735 17.0491 3.3807L20.8733 19.945C21.0596 20.7522 20.5563 21.5576 19.7492 21.744C18.942 21.9303 18.1365 21.427 17.9502 20.6198L14.126 4.05555C13.9396 3.24835 14.4429 2.44292 15.2501 2.25657Z" fill="black"/>
</svg>
