<?xml version="1.0" encoding="UTF-8"?><svg id="Layer_2" xmlns="http://www.w3.org/2000/svg" viewBox="0 0 24.85 23.91"><defs><style>.cls-1{fill:#8b8b8b;}</style></defs><g id="Layer_1-2"><g><path class="cls-1" d="m6.52,23.91H1c-.55,0-1-.45-1-1v-12.54c0-.55.45-1,1-1h5.52c.55,0,1,.45,1,1v12.54c0,.55-.45,1-1,1Zm-4.52-2h3.52v-10.54h-3.52v10.54Z"/><path class="cls-1" d="m15.19,23.91h-5.52c-.55,0-1-.45-1-1V1c0-.55.45-1,1-1h5.52c.55,0,1,.45,1,1v21.91c0,.55-.45,1-1,1Zm-4.52-2h3.52V2h-3.52v19.91Z"/><path class="cls-1" d="m23.85,23.91h-5.52c-.55,0-1-.45-1-1v-8.53c0-.55.45-1,1-1h5.52c.55,0,1,.45,1,1v8.53c0,.55-.45,1-1,1Zm-4.52-2h3.52v-6.53h-3.52v6.53Z"/></g></g></svg>