<svg width="15" height="17" viewBox="0 0 15 17" fill="none" xmlns="http://www.w3.org/2000/svg">
<path fill-rule="evenodd" clip-rule="evenodd" d="M9 4.25H3C2.17157 4.25 1.5 4.92157 1.5 5.75V13.75C1.5 14.5784 2.17157 15.25 3 15.25H9C9.82843 15.25 10.5 14.5784 10.5 13.75V5.75C10.5 4.92157 9.82843 4.25 9 4.25ZM3 2.75C1.34315 2.75 0 4.09315 0 5.75V13.75C0 15.4069 1.34315 16.75 3 16.75H9C10.6569 16.75 12 15.4069 12 13.75V5.75C12 4.09315 10.6569 2.75 9 2.75H3Z" fill="#8B8B8B"/>
<path fill-rule="evenodd" clip-rule="evenodd" d="M4.25 0.75C4.25 0.335786 4.58579 0 5 0H11C13.0711 0 14.75 1.67893 14.75 3.75V12.75C14.75 13.1642 14.4142 13.5 14 13.5C13.5858 13.5 13.25 13.1642 13.25 12.75V3.75C13.25 2.50736 12.2426 1.5 11 1.5H5C4.58579 1.5 4.25 1.16421 4.25 0.75Z" fill="#8B8B8B"/>
</svg>
