<svg width="15" height="10" viewBox="0 0 15 10" fill="none" xmlns="http://www.w3.org/2000/svg">
<path d="M2.84659 9.15341C2.43182 9.15341 2.0554 9.07528 1.71733 8.91903C1.37926 8.75994 1.1108 8.53125 0.911932 8.23295C0.713068 7.93182 0.613636 7.56818 0.613636 7.14205C0.613636 6.76705 0.6875 6.46307 0.835227 6.23011C0.982955 5.99432 1.1804 5.80966 1.42756 5.67614C1.67472 5.54261 1.94744 5.44318 2.24574 5.37784C2.54688 5.30966 2.84943 5.25568 3.15341 5.21591C3.55114 5.16477 3.87358 5.12642 4.12074 5.10085C4.37074 5.07244 4.55256 5.02557 4.66619 4.96023C4.78267 4.89489 4.84091 4.78125 4.84091 4.61932V4.58523C4.84091 4.16477 4.72585 3.83807 4.49574 3.60511C4.26847 3.37216 3.9233 3.25568 3.46023 3.25568C2.98011 3.25568 2.60369 3.3608 2.33097 3.57102C2.05824 3.78125 1.86648 4.00568 1.75568 4.24432L0.801136 3.90341C0.971591 3.50568 1.19886 3.19602 1.48295 2.97443C1.76989 2.75 2.08239 2.59375 2.42045 2.50568C2.76136 2.41477 3.09659 2.36932 3.42614 2.36932C3.63636 2.36932 3.87784 2.39489 4.15057 2.44602C4.42614 2.49432 4.69176 2.59517 4.94744 2.74858C5.20597 2.90199 5.42045 3.13352 5.59091 3.44318C5.76136 3.75284 5.84659 4.16761 5.84659 4.6875V9H4.84091V8.11364H4.78977C4.72159 8.25568 4.60795 8.40767 4.44886 8.5696C4.28977 8.73153 4.07813 8.86932 3.81392 8.98295C3.54972 9.09659 3.22727 9.15341 2.84659 9.15341ZM3 8.25C3.39773 8.25 3.73295 8.17188 4.00568 8.01562C4.28125 7.85938 4.48864 7.65767 4.62784 7.41051C4.76989 7.16335 4.84091 6.90341 4.84091 6.63068V5.71023C4.7983 5.76136 4.70455 5.80824 4.55966 5.85085C4.41761 5.89062 4.25284 5.92614 4.06534 5.95739C3.88068 5.9858 3.70028 6.01136 3.52415 6.03409C3.35085 6.05398 3.21023 6.07102 3.10227 6.08523C2.84091 6.11932 2.59659 6.17472 2.36932 6.25142C2.14489 6.32528 1.96307 6.4375 1.82386 6.58807C1.6875 6.7358 1.61932 6.9375 1.61932 7.19318C1.61932 7.54261 1.74858 7.80682 2.0071 7.9858C2.26847 8.16193 2.59943 8.25 3 8.25ZM8.17649 9H7.06854L10.2731 0.272727H11.364L14.5685 9H13.4606L10.8526 1.65341H10.7844L8.17649 9ZM8.58558 5.59091H13.0515V6.52841H8.58558V5.59091Z" fill="#8B8B8B"/>
</svg>
